PathFileType	4	(X/Y/Z)	D:\Documents\Paper\paper_03\paper_step_1_data\data_step_3\marker\BD\subject_01.tsv
DataRate	CameraRate	NumFrames	NumMarkers	Units	OrigDataRate	OrigDataStartFrame	OrigNumFrames
200	200	6	43	mm	200	502	200
Frame#	Time	Top.Head			L.Acromium			R.Acromium			Sternum			L.ASIS			R.ASIS			V.Sacral			R.Knee.Lat			R.Knee.Med			L.Knee.Lat			L.Knee.Med			L.Ankle.Lat			L.Toe.Tip			R.Heel			R.Ankle.Med			R.Ankle.Lat			L.Toe.Med			L.Toe.Lat			L.Heel			L.Ankle.Med			L.Shank1			L.Shank2			R.Toe.Tip			R.Toe.Med			R.Toe.Lat			L.Thigh2			L.Thigh1			L.Thigh3			R.Thigh3			R.Thigh1			R.Thigh2			R.Shank1			R.Shank2			R.Shank3			L.Shank3			L.Shank4			R.Shank4			L.Thigh4			R.Thigh4			R.Heel.Lat			R.Heel.Med			L.Heel.Lat			L.Heel.Med		
		X1	Y1	Z1	X2	Y2	Z2	X3	Y3	Z3	X4	Y4	Z4	X5	Y5	Z5	X6	Y6	Z6	X7	Y7	Z7	X8	Y8	Z8	X9	Y9	Z9	X10	Y10	Z10	X11	Y11	Z11	X12	Y12	Z12	X13	Y13	Z13	X14	Y14	Z14	X15	Y15	Z15	X16	Y16	Z16	X17	Y17	Z17	X18	Y18	Z18	X19	Y19	Z19	X20	Y20	Z20	X21	Y21	Z21	X22	Y22	Z22	X23	Y23	Z23	X24	Y24	Z24	X25	Y25	Z25	X26	Y26	Z26	X27	Y27	Z27	X28	Y28	Z28	X29	Y29	Z29	X30	Y30	Z30	X31	Y31	Z31	X32	Y32	Z32	X33	Y33	Z33	X34	Y34	Z34	X35	Y35	Z35	X36	Y36	Z36	X37	Y37	Z37	X38	Y38	Z38	X39	Y39	Z39	X40	Y40	Z40	X41	Y41	Z41	X42	Y42	Z42	X43	Y43	Z43
1899	9.49	927.564	1692.892	-993.822	935.664	1410.66	-818.071	1093.771	1399.088	-1090.648	902.114	1359.001	-1019.468	804.967	912.195	-931.491	927.561	931.708	-1133.686	1009.235	964.214	-952.844	1003.514	475.034	-1165.447	948.454	454.642	-1065.39	849.311	476.355	-847.121	886.174	456.951	-949.788	907.025	102.791	-808.614	726.96	56.478	-869.002	1104.919	34.304	-1104.174	990.248	103.18	-1115.263	1060.625	104.77	-1173.963	786.914	45.325	-907.827	793.477	46.359	-802.78	1001.358	31.459	-814.562	927.214	104.583	-894.467	831.42	388.279	-837.031	829.514	307.696	-819.052	875.906	54.687	-1277.347	900.008	44.56	-1205.373	986.502	37.48	-1274.99	791.483	613.456	-878.325	792.914	696.039	-874.566	837.122	692.42	-829.136	1031.49	656.665	-1155.38	976.91	648.142	-1188.682	977.872	565.147	-1181.797	987.926	390.297	-1204.664	1003.333	304.025	-1210.276	1047.121	399.399	-1181.416	883.694	395.997	-801.059	885.542	309.831	-784.71	1062.447	317.343	-1187.148	837.554	605.279	-832.55	1031.258	568.307	-1148.843	1098.287	32.186	-1172.709	1024.786	25.278	-1100.976	935.328	22.293	-780.07	956.511	27.341	-883.634
1900	9.495	927.563	1692.878	-993.781	935.678	1410.646	-818.038	1093.775	1399.101	-1090.641	902.121	1359.015	-1019.467	804.97	912.179	-931.469	927.564	931.69	-1133.685	1009.234	964.242	-952.846	1003.526	475.031	-1165.459	948.468	454.622	-1065.371	849.331	476.324	-847.112	886.133	456.932	-949.812	907.042	102.772	-808.632	726.954	56.451	-869.013	1104.936	34.303	-1104.168	990.201	103.214	-1115.277	1060.679	104.868	-1173.888	786.907	45.305	-907.827	793.473	46.374	-802.783	1001.35	31.438	-814.53	927.181	104.563	-894.497	831.417	388.327	-837.001	829.524	307.672	-819.059	875.906	54.674	-1277.324	899.991	44.539	-1205.371	986.498	37.448	-1275.015	791.484	613.478	-878.348	792.934	696.056	-874.562	837.147	692.413	-829.156	1031.48	656.67	-1155.369	976.906	648.099	-1188.684	977.915	565.139	-1181.77	987.953	390.316	-1204.659	1003.364	304.014	-1210.271	1047.133	399.399	-1181.395	883.687	395.989	-801.079	885.519	309.836	-784.691	1062.451	317.351	-1187.166	837.565	605.297	-832.571	1031.242	568.347	-1148.88	1098.298	32.135	-1172.683	1024.772	25.268	-1100.967	935.311	22.277	-780.093	956.478	27.362	-883.651
1901	9.5	927.559	1692.898	-993.742	935.68	1410.651	-818.052	1093.809	1399.105	-1090.612	902.149	1358.971	-1019.448	804.987	912.203	-931.485	927.565	931.706	-1133.699	1009.261	964.248	-952.853	1003.532	475.037	-1165.458	948.474	454.622	-1065.372	849.327	476.318	-847.12	886.152	456.96	-949.802	907.024	102.79	-808.623	726.972	56.453	-869.017	1104.914	34.301	-1104.178	990.237	103.174	-1115.248	1060.738	104.98	-1173.907	786.918	45.294	-907.836	793.472	46.352	-802.776	1001.33	31.418	-814.545	927.159	104.606	-894.476	831.399	388.299	-837.038	829.524	307.678	-819.06	875.92	54.635	-1277.338	900.002	44.515	-1205.375	986.455	37.462	-1275.035	791.494	613.449	-878.337	792.936	696.019	-874.578	837.142	692.402	-829.124	1031.469	656.678	-1155.372	976.931	648.147	-1188.72	977.902	565.116	-1181.785	987.939	390.29	-1204.653	1003.366	304.011	-1210.267	1047.097	399.41	-1181.406	883.688	395.98	-801.1	885.536	309.831	-784.699	1062.444	317.371	-1187.165	837.547	605.328	-832.582	1031.255	568.317	-1148.876	1098.275	32.165	-1172.699	1024.786	25.277	-1100.994	935.317	22.325	-780.065	956.486	27.349	-883.639
1902	9.505	927.542	1692.891	-993.699	935.69	1410.622	-818.021	1093.822	1399.101	-1090.596	902.144	1359.02	-1019.454	804.981	912.175	-931.513	927.571	931.688	-1133.706	1009.251	964.235	-952.883	1003.54	475.014	-1165.459	948.503	454.611	-1065.391	849.382	476.32	-847.112	886.186	456.932	-949.818	907.237	103.166	-808.375	726.945	56.458	-869.003	1104.92	34.295	-1104.18	990.23	103.123	-1115.224	1060.586	104.868	-1173.972	786.927	45.291	-907.85	793.473	46.351	-802.777	1001.357	31.431	-814.565	927.189	104.576	-894.483	831.404	388.326	-837.007	829.498	307.678	-819.06	875.898	54.659	-1277.322	899.999	44.522	-1205.371	986.479	37.45	-1275.005	791.512	613.432	-878.341	792.937	696.032	-874.57	837.153	692.379	-829.152	1031.475	656.663	-1155.395	976.93	648.116	-1188.698	977.908	565.104	-1181.775	987.937	390.298	-1204.678	1003.359	304.033	-1210.269	1047.114	399.39	-1181.406	883.702	395.973	-801.094	885.511	309.832	-784.694	1062.439	317.343	-1187.163	837.523	605.333	-832.586	1031.247	568.314	-1148.872	1098.282	32.161	-1172.685	1024.795	25.269	-1100.976	935.332	22.293	-780.039	956.501	27.301	-883.596
1903	9.51	927.549	1692.916	-993.705	935.705	1410.631	-818.033	1093.83	1399.095	-1090.607	902.153	1359.026	-1019.46	805.014	912.166	-931.493	927.584	931.707	-1133.712	1009.303	964.206	-952.868	1003.53	475.03	-1165.471	948.479	454.634	-1065.387	849.326	476.344	-847.162	886.185	456.965	-949.785	907.032	102.797	-808.618	726.94	56.45	-869.025	1104.928	34.308	-1104.182	990.229	103.151	-1115.236	1060.705	104.967	-1173.941	786.911	45.314	-907.863	793.467	46.369	-802.807	1001.377	31.476	-814.546	927.204	104.564	-894.496	831.407	388.271	-837.034	829.502	307.665	-819.088	875.908	54.67	-1277.329	900	44.575	-1205.385	986.473	37.458	-1275.035	791.521	613.417	-878.359	792.938	696.045	-874.563	837.175	692.397	-829.149	1031.486	656.638	-1155.412	976.931	648.125	-1188.688	977.922	565.081	-1181.786	987.948	390.297	-1204.675	1003.354	304.077	-1210.282	1047.132	399.406	-1181.439	883.68	395.973	-801.102	885.532	309.815	-784.703	1062.437	317.357	-1187.154	837.573	605.334	-832.624	1031.272	568.328	-1148.882	1098.269	32.153	-1172.692	1024.794	25.269	-1100.976	935.316	22.301	-780.046	956.52	27.31	-883.585
1904	9.515	927.544	1692.887	-993.673	935.727	1410.609	-818.01	1093.845	1399.105	-1090.598	902.157	1359.02	-1019.445	805.028	912.184	-931.508	927.609	931.705	-1133.715	1009.249	964.205	-952.87	1003.54	475.021	-1165.491	948.437	454.62	-1065.424	848.759	476.256	-847.913	886.155	456.927	-949.835	907.225	103.157	-808.391	726.937	56.444	-869.019	1104.903	34.328	-1104.184	990.243	103.142	-1115.213	1060.63	104.91	-1173.95	786.918	45.286	-907.845	793.457	46.358	-802.795	1001.366	31.437	-814.576	927.216	104.553	-894.49	831.386	388.303	-837.081	829.51	307.661	-819.088	875.925	54.634	-1277.325	899.986	44.525	-1205.377	986.493	37.475	-1275.015	791.515	613.404	-878.354	792.963	696.052	-874.616	837.167	692.384	-829.141	1031.488	656.69	-1155.44	976.938	648.131	-1188.729	977.912	565.126	-1181.809	987.929	390.306	-1204.673	1003.348	304.026	-1210.297	1047.135	399.396	-1181.401	883.699	395.966	-801.117	885.521	309.838	-784.722	1062.443	317.351	-1187.184	837.559	605.397	-832.63	1031.279	568.3	-1148.87	1098.275	32.143	-1172.681	1024.795	25.251	-1100.983	935.321	22.319	-780.072	956.489	27.322	-883.608
